<svg width="250" height="85" viewBox="0 0 250 85" fill="none" xmlns="http://www.w3.org/2000/svg">
<g clip-path="url(#clip0_8_19)">
<path d="M0.0155029 67.4294V4.02185H23.3278C28.5686 4.02185 33.1466 4.85537 37.0622 6.52243C41.0379 8.18948 44.351 10.4519 47.0016 13.3097C49.6521 16.1675 51.64 19.5314 52.9652 23.4014C54.2904 27.2117 54.953 31.2901 54.953 35.6363C54.953 40.4589 54.2 44.8349 52.6941 48.7644C51.2484 52.6344 49.14 55.9684 46.369 58.7667C43.5981 61.5054 40.2549 63.6488 36.3393 65.1968C32.4841 66.6852 28.1469 67.4294 23.3278 67.4294H0.0155029ZM42.3933 35.6363C42.3933 32.5999 41.9717 29.8016 41.1283 27.2415C40.2849 24.6815 39.0501 22.4785 37.4236 20.6329C35.7972 18.7872 33.7791 17.3583 31.3697 16.3461C29.0204 15.334 26.3398 14.8279 23.3278 14.8279H12.4849V56.6234H23.3278C26.4 56.6234 29.1107 56.0875 31.46 55.0158C33.8695 53.9442 35.8574 52.4854 37.4236 50.6398C39.0501 48.7346 40.2849 46.5019 41.1283 43.9418C41.9717 41.3818 42.3933 38.6133 42.3933 35.6363Z" fill="white"/>
<path d="M132.577 35.1293C132.577 31.2593 133.269 27.4489 134.655 23.698C136.101 19.8877 138.179 16.494 140.89 13.5171C143.6 10.5402 146.913 8.12893 150.829 6.28327C154.744 4.43759 159.203 3.51477 164.203 3.51477C170.105 3.51477 175.196 4.79482 179.472 7.35495C183.81 9.91506 187.033 13.2492 189.14 17.3573L179.563 23.8766C178.719 22.0905 177.696 20.6021 176.49 19.4113C175.287 18.161 173.99 17.1787 172.605 16.4642C171.22 15.7498 169.774 15.2437 168.269 14.946C166.762 14.5888 165.287 14.4102 163.84 14.4102C160.708 14.4102 157.967 15.0353 155.619 16.2856C153.329 17.5359 151.401 19.1732 149.835 21.1975C148.329 23.1622 147.185 25.4247 146.401 27.9847C145.618 30.4853 145.227 32.9859 145.227 35.4865C145.227 38.2848 145.679 40.9937 146.582 43.6134C147.486 46.1734 148.751 48.4359 150.377 50.4007C152.063 52.3654 154.052 53.9431 156.34 55.1339C158.69 56.3247 161.251 56.92 164.021 56.92C165.467 56.92 166.972 56.7414 168.539 56.3842C170.105 56.027 171.581 55.4613 172.967 54.6874C174.412 53.9134 175.738 52.9311 176.942 51.7403C178.147 50.49 179.112 49.0016 179.833 47.2749L190.044 53.0799C189.021 55.4613 187.544 57.575 185.617 59.4206C183.749 61.2067 181.612 62.725 179.201 63.9752C176.853 65.2255 174.322 66.1781 171.612 66.833C168.901 67.488 166.251 67.8154 163.66 67.8154C159.081 67.8154 154.895 66.8629 151.1 64.9576C147.305 63.0524 144.022 60.5816 141.251 57.5452C138.54 54.4493 136.402 50.9663 134.836 47.0963C133.33 43.1668 132.577 39.1779 132.577 35.1293ZM250.014 14.6781H229.503V67.2796H217.124V14.6781H196.613V3.872H250.014V14.6781Z" fill="#FF0000"/>
<path d="M1.14795 79.6822V73.5117H3.26711C3.7654 73.5117 4.19919 73.5928 4.5685 73.755C4.94369 73.9173 5.25437 74.1374 5.50058 74.4156C5.75266 74.6937 5.94024 75.0211 6.06335 75.3976C6.19232 75.7685 6.2568 76.1653 6.2568 76.5883C6.2568 77.0576 6.18645 77.4834 6.04576 77.8658C5.90507 78.2424 5.70283 78.567 5.43903 78.8392C5.1811 79.1058 4.86747 79.3144 4.49816 79.465C4.13471 79.6099 3.72435 79.6822 3.26711 79.6822H1.14795ZM5.64127 76.5883C5.64127 76.2174 5.58852 75.8785 5.483 75.5714C5.37748 75.2586 5.22214 74.9892 5.01696 74.7632C4.81765 74.5372 4.57144 74.3634 4.27833 74.2417C3.98523 74.1142 3.64816 74.0505 3.26711 74.0505H1.76347V79.1434H3.26711C3.65401 79.1434 3.99402 79.0797 4.28712 78.9522C4.58609 78.819 4.83524 78.6393 5.03454 78.4134C5.23386 78.1816 5.38335 77.9121 5.483 77.6051C5.58852 77.2922 5.64127 76.9533 5.64127 76.5883ZM9.30668 79.7691C8.97254 79.7691 8.66477 79.7083 8.38339 79.5866C8.10786 79.4591 7.86752 79.2883 7.66235 79.0739C7.45716 78.8538 7.29596 78.6017 7.17872 78.3178C7.06734 78.0338 7.01165 77.7296 7.01165 77.4052C7.01165 77.0865 7.06734 76.7882 7.17872 76.5101C7.29596 76.2261 7.45424 75.9799 7.65356 75.7713C7.85873 75.5569 8.10201 75.3889 8.38339 75.2673C8.66477 75.1397 8.9696 75.0761 9.29789 75.0761C9.63203 75.0761 9.93685 75.1397 10.2124 75.2673C10.4938 75.3889 10.7341 75.5569 10.9334 75.7713C11.1327 75.9858 11.2881 76.232 11.3995 76.5101C11.5108 76.7882 11.5665 77.0837 11.5665 77.3965C11.5665 77.4428 11.5665 77.4893 11.5665 77.5356C11.5665 77.5819 11.5636 77.6138 11.5577 77.6312H7.63597C7.65356 77.8745 7.70924 78.1005 7.80304 78.3091C7.90269 78.5118 8.02872 78.6886 8.18115 78.8392C8.33356 78.9898 8.5065 79.1086 8.69995 79.1955C8.89925 79.2766 9.11029 79.3172 9.33306 79.3172C9.4796 79.3172 9.62616 79.297 9.77272 79.2564C9.91926 79.2158 10.0541 79.1608 10.1772 79.0913C10.3003 79.0217 10.4117 78.9377 10.5113 78.8392C10.611 78.7349 10.6872 78.6219 10.74 78.5003L11.2588 78.6393C11.1884 78.8073 11.0888 78.9609 10.9598 79.0999C10.8308 79.2332 10.6813 79.352 10.5113 79.4563C10.3413 79.5547 10.1538 79.6301 9.94858 79.6822C9.7434 79.7402 9.52944 79.7691 9.30668 79.7691ZM10.995 77.1793C10.9774 76.9359 10.9188 76.7158 10.8191 76.5187C10.7253 76.316 10.6022 76.1422 10.4498 75.9973C10.3032 75.8524 10.1303 75.7394 9.931 75.6584C9.73755 75.5773 9.52944 75.5367 9.30668 75.5367C9.08391 75.5367 8.87287 75.5773 8.67357 75.6584C8.47425 75.7394 8.29839 75.8524 8.14598 75.9973C7.99942 76.1422 7.87924 76.316 7.78545 76.5187C7.69752 76.7215 7.64476 76.9418 7.62718 77.1793H10.995ZM14.8456 79.7691C14.4587 79.7691 14.1158 79.6735 13.8168 79.4823C13.5237 79.2853 13.2863 79.0391 13.1046 78.7436V81.5334H12.5066V75.1543H13.043V76.0321C13.2306 75.7481 13.4739 75.5193 13.7729 75.3455C14.0718 75.1658 14.3972 75.0761 14.7489 75.0761C15.0655 75.0761 15.3556 75.1427 15.6194 75.276C15.8832 75.4035 16.1119 75.5773 16.3053 75.7974C16.4988 76.0118 16.6483 76.2609 16.7538 76.5448C16.8652 76.8288 16.9208 77.1213 16.9208 77.4226C16.9208 77.7413 16.871 78.0425 16.7714 78.3265C16.6718 78.6104 16.528 78.8594 16.3405 79.0739C16.1587 79.2883 15.9389 79.4591 15.681 79.5866C15.4289 79.7083 15.1505 79.7691 14.8456 79.7691ZM14.6786 79.2477C14.9248 79.2477 15.1475 79.1955 15.3469 79.0913C15.552 78.987 15.725 78.8508 15.8657 78.6828C16.0123 78.509 16.1235 78.3149 16.1998 78.1005C16.2761 77.8804 16.3141 77.6544 16.3141 77.4226C16.3141 77.1793 16.2701 76.9475 16.1822 76.7273C16.0943 76.5072 15.9741 76.313 15.8217 76.145C15.6693 75.9771 15.4875 75.8437 15.2765 75.7453C15.0713 75.6468 14.8486 75.5975 14.6082 75.5975C14.4558 75.5975 14.2946 75.6294 14.1246 75.6931C13.9605 75.7511 13.8051 75.8322 13.6586 75.9365C13.5179 76.0349 13.3948 76.1537 13.2892 76.2928C13.1896 76.426 13.128 76.5681 13.1046 76.7186V78.1092C13.1749 78.2715 13.2629 78.4221 13.3684 78.5611C13.4798 78.7002 13.6029 78.8218 13.7377 78.9261C13.8784 79.0246 14.0279 79.1028 14.1862 79.1608C14.3444 79.2188 14.5086 79.2477 14.6786 79.2477ZM19.1032 79.7691C18.8863 79.7691 18.684 79.7344 18.4965 79.6649C18.3147 79.5895 18.1536 79.4882 18.0129 79.3607C17.8781 79.2332 17.7726 79.0854 17.6963 78.9174C17.6201 78.7436 17.582 78.5583 17.582 78.3612C17.582 78.1642 17.6288 77.9817 17.7227 77.8137C17.8165 77.6457 17.9484 77.5008 18.1184 77.3791C18.2883 77.2575 18.4906 77.1647 18.7251 77.101C18.9597 77.0315 19.2175 76.9967 19.4989 76.9967C19.7335 76.9967 19.9709 77.017 20.2112 77.0576C20.4515 77.0982 20.6655 77.156 20.8531 77.2314V76.8229C20.8531 76.4232 20.7388 76.1074 20.5101 75.8756C20.2815 75.6381 19.965 75.5193 19.5605 75.5193C19.3259 75.5193 19.0856 75.5656 18.8394 75.6584C18.5932 75.7511 18.3441 75.8843 18.092 76.0581L17.881 75.667C18.473 75.2731 19.0476 75.0761 19.6044 75.0761C20.1789 75.0761 20.6304 75.2353 20.9586 75.5541C21.2868 75.8728 21.451 76.313 21.451 76.8751V78.9174C21.451 79.0797 21.5242 79.1608 21.6708 79.1608V79.6822C21.5712 79.6996 21.495 79.7083 21.4422 79.7083C21.2899 79.7083 21.1696 79.6707 21.0817 79.5953C20.9997 79.52 20.9557 79.4157 20.9498 79.2825L20.9322 78.9261C20.7212 79.1984 20.4545 79.407 20.132 79.5519C19.8155 79.6968 19.4725 79.7691 19.1032 79.7691ZM19.2439 79.3172C19.5546 79.3172 19.839 79.2592 20.0969 79.1434C20.3607 79.0276 20.56 78.874 20.6948 78.6828C20.7476 78.6306 20.7856 78.5756 20.8091 78.5177C20.8384 78.454 20.8531 78.396 20.8531 78.3438V77.6051C20.6537 77.5297 20.4457 77.4719 20.2288 77.4313C20.0177 77.3907 19.8008 77.3705 19.5781 77.3705C19.156 77.3705 18.813 77.4574 18.5493 77.6312C18.2855 77.805 18.1536 78.0338 18.1536 78.3178C18.1536 78.4568 18.1799 78.5872 18.2327 78.7089C18.2914 78.8305 18.3675 78.9377 18.4613 79.0304C18.5609 79.1173 18.6783 79.1869 18.813 79.239C18.9478 79.2911 19.0916 79.3172 19.2439 79.3172ZM25.0467 75.6757C24.6422 75.6873 24.2905 75.7974 23.9915 76.006C23.6925 76.2146 23.4815 76.5014 23.3584 76.8664V79.6822H22.7604V75.1543H23.3232V76.2406C23.4933 75.893 23.7219 75.6207 24.0091 75.4237C24.2964 75.2267 24.6041 75.1282 24.9324 75.1282C24.9794 75.1282 25.0174 75.1311 25.0467 75.1369V75.6757ZM28.0591 79.465C28.0239 79.4823 27.9712 79.5056 27.9008 79.5345C27.8364 79.5634 27.7601 79.5925 27.6722 79.6214C27.5843 79.6503 27.4847 79.6764 27.3732 79.6996C27.262 79.7228 27.1446 79.7344 27.0215 79.7344C26.8926 79.7344 26.7695 79.717 26.6522 79.6822C26.535 79.6475 26.4324 79.5953 26.3444 79.5258C26.2565 79.4504 26.1862 79.3578 26.1334 79.2477C26.0806 79.1376 26.0543 79.0102 26.0543 78.8653V75.6236H25.4211V75.1543H26.0543V73.6247H26.6522V75.1543H27.7074V75.6236H26.6522V78.7002C26.664 78.8681 26.7225 78.9928 26.8281 79.0739C26.9395 79.1492 27.0655 79.1869 27.2062 79.1869C27.3763 79.1869 27.5258 79.1608 27.6546 79.1086C27.7836 79.0506 27.8657 79.0102 27.9008 78.987L28.0591 79.465ZM35.6386 79.6822H35.0406V77.1532C35.0406 76.6259 34.9556 76.2378 34.7856 75.9886C34.6157 75.7394 34.3635 75.6149 34.0294 75.6149C33.8535 75.6149 33.6865 75.6468 33.5282 75.7105C33.3758 75.7742 33.2321 75.8641 33.0973 75.9799C32.9683 76.0957 32.854 76.2348 32.7544 76.3971C32.6548 76.5535 32.5785 76.7273 32.5258 76.9185V79.6822H31.9278V77.1532C31.9278 76.6144 31.8458 76.2233 31.6816 75.9799C31.5174 75.7366 31.2654 75.6149 30.9254 75.6149C30.5796 75.6149 30.2718 75.7337 30.0021 75.9712C29.7324 76.2087 29.5389 76.5216 29.4218 76.9098V79.6822H28.8238V75.1543H29.369V76.1798C29.5565 75.8322 29.8027 75.5628 30.1076 75.3716C30.4125 75.1745 30.7495 75.0761 31.1188 75.0761C31.5057 75.0761 31.8135 75.1832 32.0421 75.3976C32.2767 75.6121 32.4202 75.893 32.473 76.2406C32.901 75.4643 33.4901 75.0761 34.2404 75.0761C34.4983 75.0761 34.7153 75.1224 34.8911 75.2151C35.0729 75.3079 35.2165 75.4411 35.322 75.6149C35.4334 75.7829 35.5126 75.9886 35.5594 76.232C35.6122 76.4695 35.6386 76.736 35.6386 77.0315V79.6822ZM38.9004 79.7691C38.5662 79.7691 38.2585 79.7083 37.9771 79.5866C37.7016 79.4591 37.4612 79.2883 37.256 79.0739C37.0509 78.8538 36.8896 78.6017 36.7724 78.3178C36.661 78.0338 36.6054 77.7296 36.6054 77.4052C36.6054 77.0865 36.661 76.7882 36.7724 76.5101C36.8896 76.2261 37.0479 75.9799 37.2473 75.7713C37.4524 75.5569 37.6957 75.3889 37.9771 75.2673C38.2585 75.1397 38.5634 75.0761 38.8916 75.0761C39.2257 75.0761 39.5306 75.1397 39.8061 75.2673C40.0875 75.3889 40.3278 75.5569 40.5271 75.7713C40.7265 75.9858 40.8817 76.232 40.9932 76.5101C41.1046 76.7882 41.1602 77.0837 41.1602 77.3965C41.1602 77.4428 41.1602 77.4893 41.1602 77.5356C41.1602 77.5819 41.1574 77.6138 41.1514 77.6312H37.2297C37.2473 77.8745 37.3029 78.1005 37.3967 78.3091C37.4963 78.5118 37.6225 78.6886 37.7748 78.8392C37.9272 78.9898 38.1002 79.1086 38.2936 79.1955C38.493 79.2766 38.704 79.3172 38.9268 79.3172C39.0734 79.3172 39.2198 79.297 39.3664 79.2564C39.513 79.2158 39.6478 79.1608 39.7709 79.0913C39.894 79.0217 40.0054 78.9377 40.105 78.8392C40.2047 78.7349 40.2809 78.6219 40.3337 78.5003L40.8525 78.6393C40.7821 78.8073 40.6825 78.9609 40.5535 79.0999C40.4245 79.2332 40.275 79.352 40.105 79.4563C39.9351 79.5547 39.7474 79.6301 39.5423 79.6822C39.3372 79.7402 39.1231 79.7691 38.9004 79.7691ZM40.5887 77.1793C40.5711 76.9359 40.5124 76.7158 40.4128 76.5187C40.319 76.316 40.1959 76.1422 40.0435 75.9973C39.8969 75.8524 39.7241 75.7394 39.5247 75.6584C39.3312 75.5773 39.1231 75.5367 38.9004 75.5367C38.6777 75.5367 38.4666 75.5773 38.2673 75.6584C38.0679 75.7394 37.892 75.8524 37.7397 75.9973C37.5931 76.1422 37.473 76.316 37.3792 76.5187C37.2912 76.7215 37.2385 76.9418 37.2209 77.1793H40.5887ZM45.9518 79.6822H45.3538V77.1532C45.3538 76.6144 45.2718 76.2233 45.1076 75.9799C44.9493 75.7366 44.7031 75.6149 44.369 75.6149C44.1931 75.6149 44.0173 75.6468 43.8414 75.7105C43.6655 75.7742 43.5014 75.8641 43.349 75.9799C43.2024 76.0957 43.0705 76.2348 42.9533 76.3971C42.8361 76.5535 42.751 76.7245 42.6983 76.9098V79.6822H42.1003V75.1543H42.6455V76.1798C42.8331 75.8496 43.0999 75.583 43.4457 75.3802C43.7974 75.1775 44.1784 75.0761 44.5888 75.0761C44.841 75.0761 45.0549 75.1224 45.2307 75.2151C45.4066 75.3079 45.5473 75.4382 45.6528 75.6062C45.7583 75.7742 45.8346 75.9799 45.8814 76.2233C45.9283 76.4666 45.9518 76.736 45.9518 77.0315V79.6822ZM49.3998 79.465C49.3646 79.4823 49.3118 79.5056 49.2415 79.5345C49.1771 79.5634 49.1008 79.5925 49.0129 79.6214C48.9249 79.6503 48.8253 79.6764 48.7139 79.6996C48.6025 79.7228 48.4853 79.7344 48.3622 79.7344C48.2332 79.7344 48.1101 79.717 47.9929 79.6822C47.8757 79.6475 47.773 79.5953 47.6851 79.5258C47.5972 79.4504 47.5268 79.3578 47.4741 79.2477C47.4213 79.1376 47.3949 79.0102 47.3949 78.8653V75.6236H46.7618V75.1543H47.3949V73.6247H47.9929V75.1543H49.048V75.6236H47.9929V78.7002C48.0045 78.8681 48.0632 78.9928 48.1687 79.0739C48.2802 79.1492 48.4061 79.1869 48.5468 79.1869C48.7168 79.1869 48.8663 79.1608 48.9953 79.1086C49.1243 79.0506 49.2063 79.0102 49.2415 78.987L49.3998 79.465ZM54.3754 79.7691C54.0412 79.7691 53.7363 79.7083 53.4609 79.5866C53.1854 79.4591 52.945 79.2883 52.7398 79.0739C52.5405 78.8594 52.3852 78.6104 52.2738 78.3265C52.1624 78.0425 52.1067 77.7442 52.1067 77.4313C52.1067 77.1126 52.1624 76.8114 52.2738 76.5274C52.391 76.2435 52.5493 75.9945 52.7486 75.78C52.9537 75.5656 53.1942 75.3948 53.4697 75.2673C53.7451 75.1397 54.0471 75.0761 54.3754 75.0761C54.7036 75.0761 55.0056 75.1397 55.2811 75.2673C55.5625 75.3948 55.8027 75.5656 56.0021 75.78C56.2072 75.9945 56.3655 76.2435 56.4769 76.5274C56.5941 76.8114 56.6528 77.1126 56.6528 77.4313C56.6528 77.7442 56.5972 78.0425 56.4857 78.3265C56.3743 78.6104 56.216 78.8594 56.0109 79.0739C55.8115 79.2883 55.5712 79.4591 55.2899 79.5866C55.0144 79.7083 54.7095 79.7691 54.3754 79.7691ZM52.7135 77.44C52.7135 77.6949 52.7574 77.9325 52.8453 78.1526C52.9333 78.3671 53.0505 78.5583 53.1971 78.7262C53.3494 78.8885 53.5253 79.0159 53.7247 79.1086C53.9298 79.2014 54.1467 79.2477 54.3754 79.2477C54.604 79.2477 54.8179 79.2014 55.0173 79.1086C55.2224 79.0102 55.4013 78.8798 55.5537 78.7175C55.706 78.5496 55.8262 78.3554 55.9142 78.1353C56.0021 77.9151 56.0461 77.6775 56.0461 77.4226C56.0461 77.1734 56.0021 76.9388 55.9142 76.7186C55.8262 76.4927 55.706 76.2986 55.5537 76.1364C55.4013 75.9684 55.2224 75.838 55.0173 75.7453C54.8179 75.6468 54.604 75.5975 54.3754 75.5975C54.1467 75.5975 53.9328 75.6468 53.7335 75.7453C53.5341 75.838 53.3582 75.9684 53.2059 76.1364C53.0535 76.3043 52.9333 76.5014 52.8453 76.7273C52.7574 76.9475 52.7135 77.1851 52.7135 77.44ZM57.8215 79.6822V75.6236H57.1884V75.1543H57.8215V75.0326C57.8215 74.4764 57.9418 74.0418 58.1821 73.729C58.4224 73.4103 58.7508 73.251 59.1669 73.251C59.3487 73.251 59.5245 73.277 59.6945 73.3292C59.8645 73.3813 60.0111 73.4509 60.1342 73.5378L59.9495 73.9636C59.8675 73.8999 59.7648 73.8506 59.6417 73.8159C59.5246 73.7811 59.4043 73.7637 59.2812 73.7637C58.9998 73.7637 58.7859 73.8709 58.6393 74.0853C58.4927 74.2997 58.4195 74.6096 58.4195 75.0152V75.1543H59.6857V75.6236H58.4195V79.6822H57.8215ZM62.7148 79.6822V73.5117H63.3303V79.6822H62.7148ZM68.6417 79.6822H68.0438V77.1532C68.0438 76.6144 67.9618 76.2233 67.7976 75.9799C67.6393 75.7366 67.3931 75.6149 67.059 75.6149C66.8831 75.6149 66.7072 75.6468 66.5314 75.7105C66.3555 75.7742 66.1915 75.8641 66.039 75.9799C65.8925 76.0957 65.7606 76.2348 65.6433 76.3971C65.5261 76.5535 65.441 76.7245 65.3883 76.9098V79.6822H64.7903V75.1543H65.3355V76.1798C65.5232 75.8496 65.7899 75.583 66.1357 75.3802C66.4874 75.1775 66.8685 75.0761 67.2788 75.0761C67.5309 75.0761 67.7448 75.1224 67.9207 75.2151C68.0966 75.3079 68.2373 75.4382 68.3428 75.6062C68.4483 75.7742 68.5246 75.9799 68.5714 76.2233C68.6184 76.4666 68.6417 76.736 68.6417 77.0315V79.6822ZM70.1114 79.6822V75.6236H69.4783V75.1543H70.1114V75.0326C70.1114 74.4764 70.2315 74.0418 70.4719 73.729C70.7122 73.4103 71.0405 73.251 71.4568 73.251C71.6384 73.251 71.8143 73.277 71.9844 73.3292C72.1543 73.3813 72.3009 73.4509 72.424 73.5378L72.2394 73.9636C72.1572 73.8999 72.0547 73.8506 71.9316 73.8159C71.8143 73.7811 71.6942 73.7637 71.5711 73.7637C71.2897 73.7637 71.0756 73.8709 70.9292 74.0853C70.7826 74.2997 70.7094 74.6096 70.7094 75.0152V75.1543H71.9756V75.6236H70.7094V79.6822H70.1114ZM74.5318 79.7691C74.1977 79.7691 73.8928 79.7083 73.6173 79.5866C73.3419 79.4591 73.1014 79.2883 72.8963 79.0739C72.6969 78.8594 72.5417 78.6104 72.4303 78.3265C72.3188 78.0425 72.2632 77.7442 72.2632 77.4313C72.2632 77.1126 72.3188 76.8114 72.4303 76.5274C72.5474 76.2435 72.7057 75.9945 72.9051 75.78C73.1102 75.5656 73.3507 75.3948 73.6261 75.2673C73.9016 75.1397 74.2036 75.0761 74.5318 75.0761C74.8601 75.0761 75.1621 75.1397 75.4375 75.2673C75.7189 75.3948 75.9592 75.5656 76.1586 75.78C76.3637 75.9945 76.522 76.2435 76.6334 76.5274C76.7506 76.8114 76.8093 77.1126 76.8093 77.4313C76.8093 77.7442 76.7536 78.0425 76.6422 78.3265C76.5308 78.6104 76.3725 78.8594 76.1674 79.0739C75.968 79.2883 75.7277 79.4591 75.4463 79.5866C75.1709 79.7083 74.866 79.7691 74.5318 79.7691ZM72.8699 77.44C72.8699 77.6949 72.9139 77.9325 73.0018 78.1526C73.0897 78.3671 73.2069 78.5583 73.3535 78.7262C73.5059 78.8885 73.6818 79.0159 73.8811 79.1086C74.0863 79.2014 74.3032 79.2477 74.5318 79.2477C74.7605 79.2477 74.9744 79.2014 75.1737 79.1086C75.3789 79.0102 75.5578 78.8798 75.7101 78.7175C75.8625 78.5496 75.9827 78.3554 76.0706 78.1353C76.1586 77.9151 76.2025 77.6775 76.2025 77.4226C76.2025 77.1734 76.1586 76.9388 76.0706 76.7186C75.9827 76.4927 75.8625 76.2986 75.7101 76.1364C75.5578 75.9684 75.3789 75.838 75.1737 75.7453C74.9744 75.6468 74.7605 75.5975 74.5318 75.5975C74.3032 75.5975 74.0893 75.6468 73.8899 75.7453C73.6906 75.838 73.5147 75.9684 73.3623 76.1364C73.21 76.3043 73.0897 76.5014 73.0018 76.7273C72.9139 76.9475 72.8699 77.1851 72.8699 77.44ZM80.1131 75.6757C79.7086 75.6873 79.3569 75.7974 79.0579 76.006C78.7589 76.2146 78.5479 76.5014 78.4248 76.8664V79.6822H77.8269V75.1543H78.3896V76.2406C78.5596 75.893 78.7882 75.6207 79.0755 75.4237C79.3628 75.2267 79.6706 75.1282 79.9988 75.1282C80.0456 75.1282 80.0838 75.1311 80.1131 75.1369V75.6757ZM87.742 79.6822H87.144V77.1532C87.144 76.6259 87.059 76.2378 86.889 75.9886C86.7191 75.7394 86.4669 75.6149 86.1328 75.6149C85.9569 75.6149 85.7899 75.6468 85.6316 75.7105C85.4792 75.7742 85.3355 75.8641 85.2007 75.9799C85.0717 76.0957 84.9574 76.2348 84.8578 76.3971C84.7582 76.5535 84.6819 76.7273 84.6292 76.9185V79.6822H84.0312V77.1532C84.0312 76.6144 83.9492 76.2233 83.785 75.9799C83.6208 75.7366 83.3689 75.6149 83.0288 75.6149C82.683 75.6149 82.3752 75.7337 82.1055 75.9712C81.8358 76.2087 81.6423 76.5216 81.5252 76.9098V79.6822H80.9272V75.1543H81.4724V76.1798C81.6599 75.8322 81.9061 75.5628 82.211 75.3716C82.5159 75.1745 82.8529 75.0761 83.2223 75.0761C83.6092 75.0761 83.9169 75.1832 84.1455 75.3976C84.3801 75.6121 84.5237 75.893 84.5764 76.2406C85.0044 75.4643 85.5935 75.0761 86.3438 75.0761C86.6017 75.0761 86.8187 75.1224 86.9945 75.2151C87.1763 75.3079 87.3199 75.4411 87.4254 75.6149C87.5368 75.7829 87.616 75.9886 87.6628 76.232C87.7156 76.4695 87.742 76.736 87.742 77.0315V79.6822ZM90.1772 79.7691C89.9603 79.7691 89.758 79.7344 89.5705 79.6649C89.3887 79.5895 89.2276 79.4882 89.0869 79.3607C88.9521 79.2332 88.8466 79.0854 88.7703 78.9174C88.6941 78.7436 88.656 78.5583 88.656 78.3612C88.656 78.1642 88.7029 77.9817 88.7967 77.8137C88.8905 77.6457 89.0224 77.5008 89.1924 77.3791C89.3623 77.2575 89.5646 77.1647 89.7991 77.101C90.0337 77.0315 90.2915 76.9967 90.5729 76.9967C90.8075 76.9967 91.0449 77.017 91.2852 77.0576C91.5255 77.0982 91.7395 77.156 91.9271 77.2314V76.8229C91.9271 76.4232 91.8128 76.1074 91.5841 75.8756C91.3555 75.6381 91.039 75.5193 90.6345 75.5193C90.3999 75.5193 90.1596 75.5656 89.9134 75.6584C89.6672 75.7511 89.4181 75.8843 89.166 76.0581L88.955 75.667C89.547 75.2731 90.1216 75.0761 90.6784 75.0761C91.2529 75.0761 91.7044 75.2353 92.0326 75.5541C92.3608 75.8728 92.525 76.313 92.525 76.8751V78.9174C92.525 79.0797 92.5982 79.1608 92.7448 79.1608V79.6822C92.6452 79.6996 92.569 79.7083 92.5162 79.7083C92.3639 79.7083 92.2436 79.6707 92.1557 79.5953C92.0737 79.52 92.0297 79.4157 92.0238 79.2825L92.0062 78.9261C91.7952 79.1984 91.5285 79.407 91.206 79.5519C90.8895 79.6968 90.5465 79.7691 90.1772 79.7691ZM90.3179 79.3172C90.6286 79.3172 90.913 79.2592 91.1709 79.1434C91.4346 79.0276 91.634 78.874 91.7688 78.6828C91.8216 78.6306 91.8596 78.5756 91.8831 78.5177C91.9124 78.454 91.9271 78.396 91.9271 78.3438V77.6051C91.7277 77.5297 91.5197 77.4719 91.3027 77.4313C91.0917 77.3907 90.8748 77.3705 90.6521 77.3705C90.23 77.3705 89.8871 77.4574 89.6233 77.6312C89.3595 77.805 89.2276 78.0338 89.2276 78.3178C89.2276 78.4568 89.2539 78.5872 89.3067 78.7089C89.3654 78.8305 89.4415 78.9377 89.5353 79.0304C89.6349 79.1173 89.7523 79.1869 89.8871 79.239C90.0218 79.2911 90.1656 79.3172 90.3179 79.3172ZM95.9985 79.465C95.9633 79.4823 95.9105 79.5056 95.8402 79.5345C95.7756 79.5634 95.6995 79.5925 95.6116 79.6214C95.5236 79.6503 95.4239 79.6764 95.3126 79.6996C95.2012 79.7228 95.084 79.7344 94.9609 79.7344C94.8319 79.7344 94.7088 79.717 94.5916 79.6822C94.4742 79.6475 94.3717 79.5953 94.2838 79.5258C94.1959 79.4504 94.1255 79.3578 94.0728 79.2477C94.02 79.1376 93.9936 79.0102 93.9936 78.8653V75.6236H93.3605V75.1543H93.9936V73.6247H94.5916V75.1543H95.6468V75.6236H94.5916V78.7002C94.6032 78.8681 94.6619 78.9928 94.7674 79.0739C94.8787 79.1492 95.0049 79.1869 95.1455 79.1869C95.3155 79.1869 95.465 79.1608 95.594 79.1086C95.7229 79.0506 95.805 79.0102 95.8402 78.987L95.9985 79.465ZM96.7632 79.6822V75.1543H97.3611V79.6822H96.7632ZM96.7632 74.207V73.3379H97.3611V74.207H96.7632ZM100.648 79.7691C100.314 79.7691 100.009 79.7083 99.7332 79.5866C99.4577 79.4591 99.2174 79.2883 99.0121 79.0739C98.8129 78.8594 98.6575 78.6104 98.5461 78.3265C98.4348 78.0425 98.379 77.7442 98.379 77.4313C98.379 77.1126 98.4348 76.8114 98.5461 76.5274C98.6634 76.2435 98.8217 75.9945 99.0209 75.78C99.2262 75.5656 99.4665 75.3948 99.742 75.2673C100.018 75.1397 100.319 75.0761 100.648 75.0761C100.976 75.0761 101.278 75.1397 101.553 75.2673C101.835 75.3948 102.075 75.5656 102.274 75.78C102.48 75.9945 102.638 76.2435 102.749 76.5274C102.867 76.8114 102.925 77.1126 102.925 77.4313C102.925 77.7442 102.869 78.0425 102.758 78.3265C102.647 78.6104 102.488 78.8594 102.283 79.0739C102.084 79.2883 101.844 79.4591 101.562 79.5866C101.287 79.7083 100.982 79.7691 100.648 79.7691ZM98.9857 77.44C98.9857 77.6949 99.0297 77.9325 99.1177 78.1526C99.2056 78.3671 99.3229 78.5583 99.4694 78.7262C99.6219 78.8885 99.7978 79.0159 99.997 79.1086C100.202 79.2014 100.419 79.2477 100.648 79.2477C100.876 79.2477 101.09 79.2014 101.29 79.1086C101.495 79.0102 101.674 78.8798 101.826 78.7175C101.978 78.5496 102.099 78.3554 102.186 78.1353C102.274 77.9151 102.318 77.6775 102.318 77.4226C102.318 77.1734 102.274 76.9388 102.186 76.7186C102.099 76.4927 101.978 76.2986 101.826 76.1364C101.674 75.9684 101.495 75.838 101.29 75.7453C101.09 75.6468 100.876 75.5975 100.648 75.5975C100.419 75.5975 100.205 75.6468 100.006 75.7453C99.8065 75.838 99.6307 75.9684 99.4782 76.1364C99.3258 76.3043 99.2056 76.5014 99.1177 76.7273C99.0297 76.9475 98.9857 77.1851 98.9857 77.44ZM107.794 79.6822H107.196V77.1532C107.196 76.6144 107.114 76.2233 106.95 75.9799C106.792 75.7366 106.546 75.6149 106.211 75.6149C106.036 75.6149 105.86 75.6468 105.684 75.7105C105.508 75.7742 105.344 75.8641 105.191 75.9799C105.045 76.0957 104.913 76.2348 104.796 76.3971C104.678 76.5535 104.594 76.7245 104.541 76.9098V79.6822H103.943V75.1543H104.488V76.1798C104.676 75.8496 104.942 75.583 105.288 75.3802C105.64 75.1775 106.021 75.0761 106.431 75.0761C106.683 75.0761 106.897 75.1224 107.073 75.2151C107.249 75.3079 107.39 75.4382 107.495 75.6062C107.601 75.7742 107.677 75.9799 107.724 76.2233C107.771 76.4666 107.794 76.736 107.794 77.0315V79.6822ZM112.498 79.7691C112.281 79.7691 112.079 79.7344 111.891 79.6649C111.709 79.5895 111.548 79.4882 111.407 79.3607C111.272 79.2332 111.167 79.0854 111.091 78.9174C111.015 78.7436 110.976 78.5583 110.976 78.3612C110.976 78.1642 111.023 77.9817 111.117 77.8137C111.211 77.6457 111.343 77.5008 111.513 77.3791C111.683 77.2575 111.885 77.1647 112.119 77.101C112.354 77.0315 112.612 76.9967 112.893 76.9967C113.128 76.9967 113.365 77.017 113.606 77.0576C113.846 77.0982 114.06 77.156 114.247 77.2314V76.8229C114.247 76.4232 114.133 76.1074 113.904 75.8756C113.676 75.6381 113.359 75.5193 112.955 75.5193C112.72 75.5193 112.48 75.5656 112.234 75.6584C111.988 75.7511 111.738 75.8843 111.486 76.0581L111.275 75.667C111.867 75.2731 112.442 75.0761 112.999 75.0761C113.573 75.0761 114.025 75.2353 114.353 75.5541C114.681 75.8728 114.845 76.313 114.845 76.8751V78.9174C114.845 79.0797 114.919 79.1608 115.065 79.1608V79.6822C114.966 79.6996 114.889 79.7083 114.837 79.7083C114.684 79.7083 114.564 79.6707 114.476 79.5953C114.394 79.52 114.35 79.4157 114.344 79.2825L114.327 78.9261C114.116 79.1984 113.849 79.407 113.526 79.5519C113.21 79.6968 112.867 79.7691 112.498 79.7691ZM112.638 79.3172C112.949 79.3172 113.233 79.2592 113.491 79.1434C113.755 79.0276 113.954 78.874 114.089 78.6828C114.142 78.6306 114.18 78.5756 114.203 78.5177C114.233 78.454 114.247 78.396 114.247 78.3438V77.6051C114.048 77.5297 113.84 77.4719 113.623 77.4313C113.412 77.3907 113.195 77.3705 112.972 77.3705C112.55 77.3705 112.207 77.4574 111.944 77.6312C111.68 77.805 111.548 78.0338 111.548 78.3178C111.548 78.4568 111.574 78.5872 111.627 78.7089C111.686 78.8305 111.762 78.9377 111.856 79.0304C111.955 79.1173 112.073 79.1869 112.207 79.239C112.342 79.2911 112.486 79.3172 112.638 79.3172ZM120.006 79.6822H119.408V77.1532C119.408 76.6144 119.326 76.2233 119.162 75.9799C119.004 75.7366 118.758 75.6149 118.424 75.6149C118.248 75.6149 118.072 75.6468 117.896 75.7105C117.72 75.7742 117.556 75.8641 117.404 75.9799C117.257 76.0957 117.125 76.2348 117.008 76.3971C116.891 76.5535 116.806 76.7245 116.753 76.9098V79.6822H116.155V75.1543H116.7V76.1798C116.888 75.8496 117.154 75.583 117.5 75.3802C117.852 75.1775 118.233 75.0761 118.643 75.0761C118.895 75.0761 119.109 75.1224 119.285 75.2151C119.461 75.3079 119.602 75.4382 119.707 75.6062C119.813 75.7742 119.889 75.9799 119.936 76.2233C119.983 76.4666 120.006 76.736 120.006 77.0315V79.6822ZM123.181 79.7691C122.864 79.7691 122.571 79.7055 122.301 79.5779C122.032 79.4447 121.8 79.2709 121.607 79.0565C121.413 78.8421 121.261 78.5959 121.149 78.3178C121.044 78.0338 120.991 77.7383 120.991 77.4313C120.991 77.1126 121.044 76.8114 121.149 76.5274C121.255 76.2378 121.399 75.9858 121.58 75.7713C121.768 75.5569 121.988 75.3889 122.24 75.2673C122.498 75.1397 122.779 75.0761 123.084 75.0761C123.471 75.0761 123.814 75.1775 124.113 75.3802C124.412 75.5773 124.646 75.8176 124.816 76.1016V73.3379H125.414V78.9174C125.414 79.0797 125.485 79.1608 125.625 79.1608V79.6822C125.537 79.6996 125.467 79.7083 125.414 79.7083C125.273 79.7083 125.15 79.6649 125.045 79.5779C124.939 79.4852 124.887 79.3752 124.887 79.2477V78.8045C124.705 79.0999 124.459 79.3346 124.148 79.5084C123.837 79.6822 123.515 79.7691 123.181 79.7691ZM123.313 79.2477C123.459 79.2477 123.614 79.2188 123.779 79.1608C123.949 79.1028 124.107 79.0246 124.253 78.9261C124.4 78.8218 124.523 78.703 124.623 78.5698C124.728 78.4307 124.793 78.283 124.816 78.1266V76.7273C124.758 76.5709 124.673 76.426 124.561 76.2928C124.45 76.1537 124.321 76.0321 124.174 75.9278C124.034 75.8235 123.881 75.7424 123.717 75.6844C123.553 75.6264 123.392 75.5975 123.233 75.5975C122.987 75.5975 122.765 75.6497 122.565 75.754C122.366 75.8582 122.193 75.9973 122.046 76.1711C121.906 76.3391 121.797 76.5333 121.721 76.7534C121.645 76.9735 121.607 77.1995 121.607 77.4313C121.607 77.6746 121.651 77.9064 121.739 78.1266C121.827 78.3467 121.947 78.5409 122.099 78.7089C122.252 78.8711 122.43 79.0015 122.636 79.0999C122.847 79.1984 123.072 79.2477 123.313 79.2477ZM128.755 76.5535C128.755 76.1827 128.82 75.8148 128.949 75.4498C129.084 75.0789 129.277 74.7487 129.529 74.459C129.781 74.1694 130.092 73.9347 130.461 73.755C130.83 73.5697 131.25 73.4769 131.718 73.4769C132.275 73.4769 132.75 73.6015 133.143 73.8506C133.542 74.0998 133.835 74.4242 134.022 74.824L133.539 75.1195C133.439 74.9168 133.316 74.7458 133.169 74.6068C133.029 74.4677 132.876 74.3547 132.712 74.2678C132.548 74.1809 132.378 74.1201 132.202 74.0853C132.026 74.0447 131.853 74.0245 131.683 74.0245C131.308 74.0245 130.977 74.0998 130.69 74.2504C130.403 74.401 130.159 74.5981 129.96 74.8414C129.766 75.0848 129.62 75.36 129.52 75.667C129.421 75.9684 129.371 76.2754 129.371 76.5883C129.371 76.9301 129.429 77.2575 129.547 77.5703C129.67 77.8832 129.834 78.1613 130.039 78.4047C130.25 78.6422 130.496 78.8334 130.778 78.9783C131.065 79.1173 131.376 79.1869 131.71 79.1869C131.886 79.1869 132.064 79.1666 132.246 79.126C132.434 79.0797 132.613 79.0102 132.782 78.9174C132.958 78.819 133.12 78.7002 133.266 78.5611C133.413 78.4162 133.536 78.2424 133.635 78.0397L134.145 78.3004C134.046 78.5322 133.905 78.7378 133.723 78.9174C133.542 79.0913 133.339 79.239 133.117 79.3607C132.894 79.4823 132.656 79.5751 132.404 79.6388C132.158 79.7025 131.915 79.7344 131.675 79.7344C131.247 79.7344 130.854 79.6416 130.496 79.4563C130.139 79.2709 129.831 79.0304 129.573 78.7349C129.315 78.4336 129.113 78.0947 128.966 77.7181C128.826 77.3357 128.755 76.9475 128.755 76.5535ZM137.043 79.7691C136.709 79.7691 136.404 79.7083 136.129 79.5866C135.853 79.4591 135.613 79.2883 135.408 79.0739C135.208 78.8594 135.053 78.6104 134.942 78.3265C134.83 78.0425 134.775 77.7442 134.775 77.4313C134.775 77.1126 134.83 76.8114 134.942 76.5274C135.059 76.2435 135.217 75.9945 135.416 75.78C135.622 75.5656 135.862 75.3948 136.138 75.2673C136.413 75.1397 136.715 75.0761 137.043 75.0761C137.371 75.0761 137.673 75.1397 137.949 75.2673C138.23 75.3948 138.471 75.5656 138.67 75.78C138.875 75.9945 139.033 76.2435 139.145 76.5274C139.262 76.8114 139.321 77.1126 139.321 77.4313C139.321 77.7442 139.265 78.0425 139.154 78.3265C139.042 78.6104 138.884 78.8594 138.679 79.0739C138.479 79.2883 138.239 79.4591 137.958 79.5866C137.682 79.7083 137.377 79.7691 137.043 79.7691ZM135.381 77.44C135.381 77.6949 135.425 77.9325 135.513 78.1526C135.601 78.3671 135.718 78.5583 135.865 78.7262C136.017 78.8885 136.193 79.0159 136.393 79.1086C136.598 79.2014 136.815 79.2477 137.043 79.2477C137.272 79.2477 137.486 79.2014 137.685 79.1086C137.89 79.0102 138.069 78.8798 138.221 78.7175C138.374 78.5496 138.494 78.3554 138.582 78.1353C138.67 77.9151 138.714 77.6775 138.714 77.4226C138.714 77.1734 138.67 76.9388 138.582 76.7186C138.494 76.4927 138.374 76.2986 138.221 76.1364C138.069 75.9684 137.89 75.838 137.685 75.7453C137.486 75.6468 137.272 75.5975 137.043 75.5975C136.815 75.5975 136.601 75.6468 136.401 75.7453C136.202 75.838 136.026 75.9684 135.874 76.1364C135.721 76.3043 135.601 76.5014 135.513 76.7273C135.425 76.9475 135.381 77.1851 135.381 77.44ZM147.153 79.6822H146.555V77.1532C146.555 76.6259 146.47 76.2378 146.3 75.9886C146.13 75.7394 145.878 75.6149 145.544 75.6149C145.368 75.6149 145.201 75.6468 145.043 75.7105C144.89 75.7742 144.747 75.8641 144.612 75.9799C144.483 76.0957 144.369 76.2348 144.269 76.3971C144.169 76.5535 144.093 76.7273 144.04 76.9185V79.6822H143.442V77.1532C143.442 76.6144 143.36 76.2233 143.196 75.9799C143.032 75.7366 142.78 75.6149 142.44 75.6149C142.094 75.6149 141.786 75.7337 141.517 75.9712C141.247 76.2087 141.054 76.5216 140.936 76.9098V79.6822H140.338V75.1543H140.883V76.1798C141.071 75.8322 141.317 75.5628 141.622 75.3716C141.927 75.1745 142.264 75.0761 142.633 75.0761C143.02 75.0761 143.328 75.1832 143.557 75.3976C143.791 75.6121 143.935 75.893 143.987 76.2406C144.415 75.4643 145.005 75.0761 145.755 75.0761C146.013 75.0761 146.23 75.1224 146.406 75.2151C146.587 75.3079 146.731 75.4411 146.836 75.6149C146.948 75.7829 147.027 75.9886 147.074 76.232C147.127 76.4695 147.153 76.736 147.153 77.0315V79.6822ZM155.252 79.6822H154.653V77.1532C154.653 76.6259 154.568 76.2378 154.398 75.9886C154.228 75.7394 153.977 75.6149 153.642 75.6149C153.466 75.6149 153.299 75.6468 153.141 75.7105C152.988 75.7742 152.844 75.8641 152.709 75.9799C152.58 76.0957 152.467 76.2348 152.367 76.3971C152.267 76.5535 152.191 76.7273 152.138 76.9185V79.6822H151.54V77.1532C151.54 76.6144 151.458 76.2233 151.294 75.9799C151.13 75.7366 150.878 75.6149 150.538 75.6149C150.192 75.6149 149.884 75.7337 149.615 75.9712C149.345 76.2087 149.151 76.5216 149.034 76.9098V79.6822H148.436V75.1543H148.982V76.1798C149.169 75.8322 149.415 75.5628 149.72 75.3716C150.025 75.1745 150.362 75.0761 150.731 75.0761C151.118 75.0761 151.426 75.1832 151.654 75.3976C151.889 75.6121 152.033 75.893 152.086 76.2406C152.514 75.4643 153.102 75.0761 153.852 75.0761C154.112 75.0761 154.328 75.1224 154.504 75.2151C154.685 75.3079 154.829 75.4411 154.935 75.6149C155.045 75.7829 155.124 75.9886 155.171 76.232C155.224 76.4695 155.252 76.736 155.252 77.0315V79.6822ZM157.967 79.7691C157.47 79.7691 157.097 79.6069 156.851 79.2825C156.61 78.9522 156.49 78.4627 156.49 77.8137V75.1543H157.088V77.7094C157.088 78.7349 157.442 79.2477 158.152 79.2477C158.328 79.2477 158.501 79.2188 158.67 79.1608C158.842 79.1028 158.996 79.0189 159.137 78.9087C159.284 78.7986 159.413 78.6683 159.524 78.5177C159.641 78.3671 159.735 78.1961 159.806 78.0049V75.1543H160.403V78.9174C160.403 79.0797 160.473 79.1608 160.614 79.1608V79.6822C160.544 79.6938 160.485 79.6996 160.438 79.6996C160.397 79.6996 160.368 79.6996 160.35 79.6996C160.209 79.6938 160.096 79.6446 160.008 79.5519C159.92 79.4591 159.876 79.3346 159.876 79.1782V78.6567C159.677 79.0102 159.404 79.2853 159.059 79.4823C158.717 79.6735 158.355 79.7691 157.967 79.7691ZM165.625 79.6822H165.026V77.1532C165.026 76.6144 164.944 76.2233 164.78 75.9799C164.623 75.7366 164.375 75.6149 164.042 75.6149C163.866 75.6149 163.69 75.6468 163.514 75.7105C163.338 75.7742 163.175 75.8641 163.022 75.9799C162.874 76.0957 162.743 76.2348 162.626 76.3971C162.509 76.5535 162.424 76.7245 162.371 76.9098V79.6822H161.772V75.1543H162.318V76.1798C162.506 75.8496 162.773 75.583 163.119 75.3802C163.47 75.1775 163.851 75.0761 164.262 75.0761C164.513 75.0761 164.727 75.1224 164.903 75.2151C165.079 75.3079 165.22 75.4382 165.326 75.6062C165.431 75.7742 165.508 75.9799 165.553 76.2233C165.6 76.4666 165.625 76.736 165.625 77.0315V79.6822ZM166.916 79.6822V75.1543H167.515V79.6822H166.916ZM166.916 74.207V73.3379H167.515V74.207H166.916ZM168.532 77.4052C168.532 77.0865 168.589 76.7853 168.701 76.5014C168.811 76.2174 168.968 75.9712 169.166 75.7626C169.371 75.5482 169.615 75.3802 169.895 75.2586C170.177 75.1369 170.488 75.0761 170.828 75.0761C171.261 75.0761 171.64 75.1745 171.962 75.3716C172.285 75.5628 172.529 75.8235 172.693 76.1537L172.112 76.3362C171.983 76.1044 171.801 75.9249 171.566 75.7974C171.339 75.6642 171.082 75.5975 170.802 75.5975C170.567 75.5975 170.347 75.6438 170.143 75.7366C169.942 75.8293 169.767 75.9567 169.615 76.119C169.468 76.2754 169.351 76.4638 169.263 76.6839C169.181 76.904 169.14 77.1445 169.14 77.4052C169.14 77.6601 169.184 77.9006 169.272 78.1266C169.36 78.3525 169.48 78.5496 169.632 78.7175C169.785 78.8798 169.961 79.0102 170.159 79.1086C170.365 79.2014 170.582 79.2477 170.811 79.2477C170.957 79.2477 171.101 79.2275 171.242 79.1869C171.387 79.1463 171.522 79.0913 171.646 79.0217C171.769 78.9464 171.874 78.8624 171.962 78.7697C172.05 78.6769 172.112 78.5785 172.147 78.4742L172.737 78.648C172.671 78.8103 172.577 78.9609 172.455 79.0999C172.332 79.2332 172.185 79.352 172.015 79.4563C171.851 79.5547 171.666 79.6301 171.462 79.6822C171.261 79.7402 171.054 79.7691 170.837 79.7691C170.503 79.7691 170.196 79.7083 169.914 79.5866C169.632 79.4591 169.389 79.2883 169.184 79.0739C168.978 78.8538 168.817 78.6017 168.701 78.3178C168.589 78.0338 168.532 77.7296 168.532 77.4052ZM174.845 79.7691C174.629 79.7691 174.425 79.7344 174.239 79.6649C174.057 79.5895 173.895 79.4882 173.755 79.3607C173.62 79.2332 173.514 79.0854 173.438 78.9174C173.363 78.7436 173.323 78.5583 173.323 78.3612C173.323 78.1642 173.37 77.9817 173.464 77.8137C173.558 77.6457 173.69 77.5008 173.86 77.3791C174.03 77.2575 174.233 77.1647 174.466 77.101C174.701 77.0315 174.959 76.9967 175.241 76.9967C175.475 76.9967 175.713 77.017 175.954 77.0576C176.193 77.0982 176.407 77.156 176.595 77.2314V76.8229C176.595 76.4232 176.481 76.1074 176.252 75.8756C176.023 75.6381 175.707 75.5193 175.302 75.5193C175.068 75.5193 174.827 75.5656 174.582 75.6584C174.334 75.7511 174.086 75.8843 173.834 76.0581L173.623 75.667C174.215 75.2731 174.789 75.0761 175.346 75.0761C175.92 75.0761 176.372 75.2353 176.701 75.5541C177.029 75.8728 177.192 76.313 177.192 76.8751V78.9174C177.192 79.0797 177.267 79.1608 177.412 79.1608V79.6822C177.314 79.6996 177.236 79.7083 177.185 79.7083C177.032 79.7083 176.912 79.6707 176.824 79.5953C176.742 79.52 176.698 79.4157 176.692 79.2825L176.674 78.9261C176.463 79.1984 176.196 79.407 175.873 79.5519C175.558 79.6968 175.214 79.7691 174.845 79.7691ZM174.986 79.3172C175.297 79.3172 175.581 79.2592 175.838 79.1434C176.102 79.0276 176.302 78.874 176.437 78.6828C176.489 78.6306 176.528 78.5756 176.551 78.5177C176.58 78.454 176.595 78.396 176.595 78.3438V77.6051C176.396 77.5297 176.187 77.4719 175.97 77.4313C175.76 77.3907 175.543 77.3705 175.32 77.3705C174.898 77.3705 174.554 77.4574 174.29 77.6312C174.027 77.805 173.895 78.0338 173.895 78.3178C173.895 78.4568 173.922 78.5872 173.975 78.7089C174.033 78.8305 174.11 78.9377 174.203 79.0304C174.303 79.1173 174.419 79.1869 174.554 79.239C174.689 79.2911 174.833 79.3172 174.986 79.3172ZM180.666 79.465C180.631 79.4823 180.578 79.5056 180.508 79.5345C180.444 79.5634 180.367 79.5925 180.279 79.6214C180.191 79.6503 180.092 79.6764 179.98 79.6996C179.87 79.7228 179.751 79.7344 179.629 79.7344C179.5 79.7344 179.377 79.717 179.259 79.6822C179.142 79.6475 179.039 79.5953 178.951 79.5258C178.863 79.4504 178.793 79.3578 178.74 79.2477C178.687 79.1376 178.661 79.0102 178.661 78.8653V75.6236H178.028V75.1543H178.661V73.6247H179.259V75.1543H180.314V75.6236H179.259V78.7002C179.271 78.8681 179.33 78.9928 179.435 79.0739C179.547 79.1492 179.673 79.1869 179.814 79.1869C179.983 79.1869 180.133 79.1608 180.262 79.1086C180.391 79.0506 180.473 79.0102 180.508 78.987L180.666 79.465ZM181.431 79.6822V75.1543H182.029V79.6822H181.431ZM181.431 74.207V73.3379H182.029V74.207H181.431ZM185.315 79.7691C184.982 79.7691 184.677 79.7083 184.401 79.5866C184.125 79.4591 183.886 79.2883 183.68 79.0739C183.481 78.8594 183.325 78.6104 183.214 78.3265C183.102 78.0425 183.047 77.7442 183.047 77.4313C183.047 77.1126 183.102 76.8114 183.214 76.5274C183.331 76.2435 183.49 75.9945 183.689 75.78C183.893 75.5656 184.134 75.3948 184.41 75.2673C184.685 75.1397 184.988 75.0761 185.315 75.0761C185.644 75.0761 185.946 75.1397 186.222 75.2673C186.502 75.3948 186.743 75.5656 186.942 75.78C187.147 75.9945 187.306 76.2435 187.417 76.5274C187.535 76.8114 187.592 77.1126 187.592 77.4313C187.592 77.7442 187.538 78.0425 187.426 78.3265C187.315 78.6104 187.156 78.8594 186.951 79.0739C186.751 79.2883 186.512 79.4591 186.23 79.5866C185.955 79.7083 185.65 79.7691 185.315 79.7691ZM183.654 77.44C183.654 77.6949 183.698 77.9325 183.786 78.1526C183.874 78.3671 183.99 78.5583 184.137 78.7262C184.289 78.8885 184.465 79.0159 184.665 79.1086C184.87 79.2014 185.086 79.2477 185.315 79.2477C185.544 79.2477 185.758 79.2014 185.958 79.1086C186.163 79.0102 186.342 78.8798 186.493 78.7175C186.646 78.5496 186.766 78.3554 186.854 78.1353C186.942 77.9151 186.986 77.6775 186.986 77.4226C186.986 77.1734 186.942 76.9388 186.854 76.7186C186.766 76.4927 186.646 76.2986 186.493 76.1364C186.342 75.9684 186.163 75.838 185.958 75.7453C185.758 75.6468 185.544 75.5975 185.315 75.5975C185.086 75.5975 184.873 75.6468 184.674 75.7453C184.474 75.838 184.298 75.9684 184.146 76.1364C183.993 76.3043 183.874 76.5014 183.786 76.7273C183.698 76.9475 183.654 77.1851 183.654 77.44ZM192.462 79.6822H191.865V77.1532C191.865 76.6144 191.781 76.2233 191.618 75.9799C191.46 75.7366 191.213 75.6149 190.879 75.6149C190.703 75.6149 190.528 75.6468 190.352 75.7105C190.176 75.7742 190.012 75.8641 189.859 75.9799C189.712 76.0957 189.58 76.2348 189.463 76.3971C189.347 76.5535 189.262 76.7245 189.209 76.9098V79.6822H188.611V75.1543H189.156V76.1798C189.344 75.8496 189.61 75.583 189.956 75.3802C190.308 75.1775 190.688 75.0761 191.099 75.0761C191.351 75.0761 191.565 75.1224 191.74 75.2151C191.916 75.3079 192.057 75.4382 192.163 75.6062C192.268 75.7742 192.345 75.9799 192.392 76.2233C192.438 76.4666 192.462 76.736 192.462 77.0315V79.6822ZM200.32 74.0505H198.094V79.6822H197.479V74.0505H195.255V73.5117H200.32V74.0505ZM202.123 79.7691C201.789 79.7691 201.481 79.7083 201.199 79.5866C200.923 79.4591 200.684 79.2883 200.479 79.0739C200.273 78.8538 200.112 78.6017 199.995 78.3178C199.883 78.0338 199.827 77.7296 199.827 77.4052C199.827 77.0865 199.883 76.7882 199.995 76.5101C200.112 76.2261 200.27 75.9799 200.47 75.7713C200.675 75.5569 200.919 75.3889 201.199 75.2673C201.481 75.1397 201.786 75.0761 202.113 75.0761C202.448 75.0761 202.753 75.1397 203.029 75.2673C203.31 75.3889 203.551 75.5569 203.749 75.7713C203.949 75.9858 204.104 76.232 204.216 76.5101C204.327 76.7882 204.383 77.0837 204.383 77.3965C204.383 77.4428 204.383 77.4893 204.383 77.5356C204.383 77.5819 204.38 77.6138 204.374 77.6312H200.452C200.47 77.8745 200.526 78.1005 200.619 78.3091C200.719 78.5118 200.844 78.6886 200.998 78.8392C201.149 78.9898 201.322 79.1086 201.516 79.1955C201.715 79.2766 201.927 79.3172 202.15 79.3172C202.295 79.3172 202.442 79.297 202.589 79.2564C202.735 79.2158 202.87 79.1608 202.993 79.0913C203.117 79.0217 203.228 78.9377 203.328 78.8392C203.428 78.7349 203.504 78.6219 203.557 78.5003L204.075 78.6393C204.004 78.8073 203.905 78.9609 203.777 79.0999C203.648 79.2332 203.498 79.352 203.328 79.4563C203.158 79.5547 202.97 79.6301 202.765 79.6822C202.559 79.7402 202.345 79.7691 202.123 79.7691ZM203.811 77.1793C203.793 76.9359 203.736 76.7158 203.636 76.5187C203.542 76.316 203.419 76.1422 203.266 75.9973C203.12 75.8524 202.946 75.7394 202.747 75.6584C202.553 75.5773 202.345 75.5367 202.123 75.5367C201.9 75.5367 201.689 75.5773 201.49 75.6584C201.29 75.7394 201.114 75.8524 200.963 75.9973C200.816 76.1422 200.696 76.316 200.602 76.5187C200.514 76.7215 200.461 76.9418 200.443 77.1793H203.811ZM205.006 77.4052C205.006 77.0865 205.062 76.7853 205.173 76.5014C205.285 76.2174 205.44 75.9712 205.64 75.7626C205.844 75.5482 206.087 75.3802 206.369 75.2586C206.651 75.1369 206.962 75.0761 207.301 75.0761C207.735 75.0761 208.113 75.1745 208.435 75.3716C208.758 75.5628 209.001 75.8235 209.165 76.1537L208.586 76.3362C208.457 76.1044 208.275 75.9249 208.04 75.7974C207.811 75.6642 207.556 75.5975 207.274 75.5975C207.041 75.5975 206.821 75.6438 206.615 75.7366C206.416 75.8293 206.24 75.9567 206.087 76.119C205.941 76.2754 205.823 76.4638 205.735 76.6839C205.653 76.904 205.613 77.1445 205.613 77.4052C205.613 77.6601 205.656 77.9006 205.744 78.1266C205.832 78.3525 205.954 78.5496 206.105 78.7175C206.258 78.8798 206.434 79.0102 206.633 79.1086C206.837 79.2014 207.054 79.2477 207.283 79.2477C207.43 79.2477 207.574 79.2275 207.714 79.1869C207.861 79.1463 207.996 79.0913 208.119 79.0217C208.241 78.9464 208.348 78.8624 208.435 78.7697C208.523 78.6769 208.586 78.5785 208.62 78.4742L209.209 78.648C209.145 78.8103 209.051 78.9609 208.928 79.0999C208.805 79.2332 208.658 79.352 208.488 79.4563C208.325 79.5547 208.14 79.6301 207.934 79.6822C207.735 79.7402 207.527 79.7691 207.311 79.7691C206.975 79.7691 206.668 79.7083 206.387 79.5866C206.105 79.4591 205.863 79.2883 205.656 79.0739C205.452 78.8538 205.291 78.6017 205.173 78.3178C205.062 78.0338 205.006 77.7296 205.006 77.4052ZM214.018 79.6822H213.42V77.1532C213.42 76.6376 213.329 76.2522 213.147 75.9973C212.972 75.7424 212.711 75.6149 212.365 75.6149C212.195 75.6149 212.024 75.6497 211.854 75.7192C211.69 75.7829 211.536 75.8728 211.389 75.9886C211.242 76.1044 211.113 76.2406 211.002 76.3971C210.896 76.5535 210.817 76.7245 210.764 76.9098V79.6822H210.167V73.3379H210.764V76.1798C210.946 75.838 211.198 75.5686 211.521 75.3716C211.844 75.1745 212.192 75.0761 212.567 75.0761C212.831 75.0761 213.053 75.1254 213.235 75.2238C213.417 75.3166 213.566 75.4498 213.684 75.6236C213.801 75.7916 213.886 75.9973 213.939 76.2406C213.992 76.4781 214.018 76.7419 214.018 77.0315V79.6822ZM219.162 79.6822H218.564V77.1532C218.564 76.6144 218.482 76.2233 218.317 75.9799C218.16 75.7366 217.914 75.6149 217.579 75.6149C217.403 75.6149 217.227 75.6468 217.051 75.7105C216.875 75.7742 216.712 75.8641 216.559 75.9799C216.413 76.0957 216.281 76.2348 216.163 76.3971C216.046 76.5535 215.961 76.7245 215.908 76.9098V79.6822H215.311V75.1543H215.855V76.1798C216.043 75.8496 216.31 75.583 216.656 75.3802C217.007 75.1775 217.388 75.0761 217.799 75.0761C218.05 75.0761 218.266 75.1224 218.441 75.2151C218.617 75.3079 218.757 75.4382 218.863 75.6062C218.969 75.7742 219.045 75.9799 219.092 76.2233C219.139 76.4666 219.162 76.736 219.162 77.0315V79.6822ZM222.406 79.7691C222.072 79.7691 221.768 79.7083 221.492 79.5866C221.216 79.4591 220.976 79.2883 220.772 79.0739C220.572 78.8594 220.417 78.6104 220.305 78.3265C220.194 78.0425 220.138 77.7442 220.138 77.4313C220.138 77.1126 220.194 76.8114 220.305 76.5274C220.423 76.2435 220.581 75.9945 220.779 75.78C220.985 75.5656 221.225 75.3948 221.501 75.2673C221.777 75.1397 222.079 75.0761 222.406 75.0761C222.735 75.0761 223.037 75.1397 223.313 75.2673C223.593 75.3948 223.834 75.5656 224.033 75.78C224.239 75.9945 224.397 76.2435 224.509 76.5274C224.626 76.8114 224.685 77.1126 224.685 77.4313C224.685 77.7442 224.629 78.0425 224.516 78.3265C224.406 78.6104 224.248 78.8594 224.042 79.0739C223.843 79.2883 223.602 79.4591 223.322 79.5866C223.046 79.7083 222.741 79.7691 222.406 79.7691ZM220.744 77.44C220.744 77.6949 220.788 77.9325 220.876 78.1526C220.964 78.3671 221.082 78.5583 221.228 78.7262C221.381 78.8885 221.557 79.0159 221.756 79.1086C221.962 79.2014 222.179 79.2477 222.406 79.2477C222.635 79.2477 222.849 79.2014 223.049 79.1086C223.254 79.0102 223.432 78.8798 223.586 78.7175C223.737 78.5496 223.857 78.3554 223.945 78.1353C224.033 77.9151 224.077 77.6775 224.077 77.4226C224.077 77.1734 224.033 76.9388 223.945 76.7186C223.857 76.4927 223.737 76.2986 223.586 76.1364C223.432 75.9684 223.254 75.838 223.049 75.7453C222.849 75.6468 222.635 75.5975 222.406 75.5975C222.179 75.5975 221.963 75.6468 221.765 75.7453C221.566 75.838 221.39 75.9684 221.237 76.1364C221.084 76.3043 220.964 76.5014 220.876 76.7273C220.788 76.9475 220.744 77.1851 220.744 77.44ZM225.728 73.3379H226.327V78.6567C226.327 78.8247 226.374 78.958 226.466 79.0565C226.56 79.1492 226.692 79.1955 226.862 79.1955C226.927 79.1955 227.003 79.1869 227.091 79.1695C227.179 79.1521 227.26 79.1289 227.338 79.0999L227.442 79.5779C227.332 79.6242 227.194 79.662 227.03 79.6909C226.871 79.7198 226.733 79.7344 226.616 79.7344C226.34 79.7344 226.123 79.659 225.966 79.5084C225.807 79.352 225.728 79.1347 225.728 78.8566V73.3379ZM230.067 79.7691C229.733 79.7691 229.428 79.7083 229.153 79.5866C228.877 79.4591 228.637 79.2883 228.431 79.0739C228.232 78.8594 228.078 78.6104 227.965 78.3265C227.855 78.0425 227.799 77.7442 227.799 77.4313C227.799 77.1126 227.855 76.8114 227.965 76.5274C228.082 76.2435 228.241 75.9945 228.44 75.78C228.646 75.5656 228.886 75.3948 229.162 75.2673C229.438 75.1397 229.739 75.0761 230.067 75.0761C230.396 75.0761 230.697 75.1397 230.973 75.2673C231.254 75.3948 231.495 75.5656 231.693 75.78C231.9 75.9945 232.057 76.2435 232.168 76.5274C232.286 76.8114 232.344 77.1126 232.344 77.4313C232.344 77.7442 232.289 78.0425 232.177 78.3265C232.066 78.6104 231.907 78.8594 231.703 79.0739C231.504 79.2883 231.263 79.4591 230.981 79.5866C230.707 79.7083 230.402 79.7691 230.067 79.7691ZM228.405 77.44C228.405 77.6949 228.449 77.9325 228.537 78.1526C228.625 78.3671 228.742 78.5583 228.889 78.7262C229.042 78.8885 229.218 79.0159 229.416 79.1086C229.621 79.2014 229.838 79.2477 230.067 79.2477C230.296 79.2477 230.509 79.2014 230.71 79.1086C230.914 79.0102 231.093 78.8798 231.245 78.7175C231.398 78.5496 231.518 78.3554 231.606 78.1353C231.693 77.9151 231.737 77.6775 231.737 77.4226C231.737 77.1734 231.693 76.9388 231.606 76.7186C231.518 76.4927 231.398 76.2986 231.245 76.1364C231.093 75.9684 230.914 75.838 230.71 75.7453C230.509 75.6468 230.296 75.5975 230.067 75.5975C229.838 75.5975 229.624 75.6468 229.425 75.7453C229.225 75.838 229.049 75.9684 228.898 76.1364C228.745 76.3043 228.625 76.5014 228.537 76.7273C228.449 76.9475 228.405 77.1851 228.405 77.44ZM235.2 79.7431C234.883 79.7431 234.594 79.6794 234.33 79.5519C234.072 79.4187 233.846 79.2448 233.652 79.0304C233.464 78.816 233.319 78.5698 233.213 78.2917C233.106 78.0136 233.055 77.7268 233.055 77.4313C233.055 77.1184 233.105 76.8201 233.203 76.5361C233.31 76.2465 233.457 75.9945 233.643 75.78C233.831 75.5656 234.054 75.3948 234.312 75.2673C234.576 75.1397 234.865 75.0761 235.182 75.0761C235.575 75.0761 235.916 75.1745 236.202 75.3716C236.49 75.5628 236.736 75.8061 236.941 76.1016V75.1543H237.477V79.6996C237.477 80.0125 237.415 80.2877 237.292 80.5252C237.176 80.7686 237.015 80.9713 236.809 81.1336C236.61 81.2959 236.372 81.4176 236.096 81.4986C235.828 81.5797 235.54 81.6203 235.235 81.6203C234.707 81.6203 234.283 81.5276 233.96 81.3422C233.637 81.1568 233.376 80.9077 233.178 80.5948L233.546 80.308C233.728 80.5976 233.969 80.8092 234.268 80.9424C234.566 81.0815 234.889 81.151 235.235 81.151C235.458 81.151 235.669 81.1191 235.869 81.0554C236.067 80.9974 236.24 80.9077 236.387 80.786C236.539 80.6702 236.66 80.5194 236.748 80.334C236.836 80.1544 236.88 79.943 236.88 79.6996V78.8045C236.704 79.0941 236.463 79.3231 236.158 79.491C235.854 79.659 235.534 79.7431 235.2 79.7431ZM235.367 79.2477C235.543 79.2477 235.716 79.2158 235.885 79.1521C236.055 79.0884 236.208 79.0043 236.343 78.9001C236.484 78.7899 236.601 78.6682 236.695 78.535C236.789 78.4018 236.85 78.2656 236.88 78.1266V76.7273C236.815 76.5651 236.727 76.4145 236.616 76.2754C236.504 76.1364 236.378 76.0175 236.237 75.9191C236.096 75.8206 235.945 75.7424 235.781 75.6844C235.622 75.6264 235.461 75.5975 235.297 75.5975C235.039 75.5975 234.807 75.6525 234.601 75.7626C234.403 75.8669 234.233 76.006 234.092 76.1798C233.951 76.3536 233.843 76.5507 233.766 76.7708C233.696 76.9909 233.661 77.214 233.661 77.44C233.661 77.6833 233.705 77.9151 233.793 78.1353C233.881 78.3554 234.001 78.5496 234.154 78.7175C234.312 78.8798 234.494 79.0102 234.698 79.1086C234.905 79.2014 235.127 79.2477 235.367 79.2477ZM238.816 79.6822V75.1543H239.413V79.6822H238.816ZM238.816 74.207V73.3379H239.413V74.207H238.816ZM242.726 79.7691C242.392 79.7691 242.085 79.7083 241.803 79.5866C241.528 79.4591 241.287 79.2883 241.083 79.0739C240.876 78.8538 240.716 78.6017 240.599 78.3178C240.487 78.0338 240.432 77.7296 240.432 77.4052C240.432 77.0865 240.487 76.7882 240.599 76.5101C240.716 76.2261 240.873 75.9799 241.073 75.7713C241.278 75.5569 241.522 75.3889 241.803 75.2673C242.085 75.1397 242.389 75.0761 242.718 75.0761C243.052 75.0761 243.357 75.1397 243.633 75.2673C243.913 75.3889 244.154 75.5569 244.353 75.7713C244.553 75.9858 244.707 76.232 244.82 76.5101C244.93 76.7882 244.986 77.0837 244.986 77.3965C244.986 77.4428 244.986 77.4893 244.986 77.5356C244.986 77.5819 244.983 77.6138 244.977 77.6312H241.055C241.073 77.8745 241.13 78.1005 241.223 78.3091C241.322 78.5118 241.448 78.6886 241.601 78.8392C241.753 78.9898 241.927 79.1086 242.119 79.1955C242.32 79.2766 242.53 79.3172 242.753 79.3172C242.899 79.3172 243.046 79.297 243.193 79.2564C243.338 79.2158 243.473 79.1608 243.598 79.0913C243.72 79.0217 243.831 78.9377 243.931 78.8392C244.031 78.7349 244.107 78.6219 244.16 78.5003L244.679 78.6393C244.609 78.8073 244.509 78.9609 244.38 79.0999C244.251 79.2332 244.101 79.352 243.931 79.4563C243.761 79.5547 243.573 79.6301 243.369 79.6822C243.163 79.7402 242.949 79.7691 242.726 79.7691ZM244.415 77.1793C244.397 76.9359 244.339 76.7158 244.239 76.5187C244.145 76.316 244.022 76.1422 243.869 75.9973C243.724 75.8524 243.551 75.7394 243.351 75.6584C243.158 75.5773 242.949 75.5367 242.726 75.5367C242.503 75.5367 242.292 75.5773 242.094 75.6584C241.894 75.7394 241.718 75.8524 241.566 75.9973C241.419 76.1422 241.299 76.316 241.205 76.5187C241.117 76.7215 241.064 76.9418 241.048 77.1793H244.415ZM247.447 79.7691C247.091 79.7691 246.74 79.7112 246.401 79.5953C246.061 79.4795 245.769 79.3114 245.522 79.0913L245.794 78.6915C246.052 78.9001 246.313 79.0565 246.577 79.1608C246.847 79.2651 247.135 79.3172 247.439 79.3172C247.808 79.3172 248.102 79.2448 248.319 79.0999C248.542 78.9494 248.652 78.7378 248.652 78.4655C248.652 78.338 248.623 78.2337 248.564 78.1526C248.505 78.0657 248.417 77.9904 248.301 77.9267C248.19 77.863 248.046 77.8079 247.87 77.7615C247.7 77.7094 247.5 77.6573 247.271 77.6051C247.007 77.5414 246.78 77.4776 246.586 77.4139C246.392 77.3502 246.231 77.2777 246.102 77.1966C245.979 77.1156 245.885 77.017 245.82 76.9011C245.763 76.7795 245.732 76.6289 245.732 76.4492C245.732 76.2233 245.776 76.0234 245.864 75.8496C245.958 75.6757 246.081 75.5338 246.234 75.4237C246.392 75.3079 246.574 75.221 246.78 75.163C246.991 75.105 247.214 75.0761 247.447 75.0761C247.799 75.0761 248.119 75.1341 248.407 75.2499C248.693 75.36 248.925 75.5078 249.101 75.6931L248.81 76.0408C248.64 75.8669 248.432 75.7366 248.187 75.6497C247.946 75.5628 247.694 75.5193 247.43 75.5193C247.271 75.5193 247.126 75.5367 246.991 75.5714C246.856 75.6004 246.736 75.6497 246.63 75.7192C246.53 75.7887 246.451 75.8785 246.392 75.9886C246.334 76.0929 246.304 76.2174 246.304 76.3623C246.304 76.484 246.325 76.5824 246.366 76.6578C246.407 76.7332 246.475 76.7997 246.568 76.8577C246.662 76.9098 246.78 76.9591 246.919 77.0054C247.066 77.046 247.242 77.0895 247.447 77.1358C247.741 77.2053 247.999 77.2749 248.222 77.3444C248.445 77.4139 248.63 77.495 248.775 77.5877C248.928 77.6805 249.042 77.7935 249.118 77.9267C249.195 78.0599 249.233 78.2222 249.233 78.4134C249.233 78.8305 249.071 79.1608 248.749 79.4041C248.426 79.6475 247.993 79.7691 247.447 79.7691Z" fill="white"/>
<path d="M74.2875 20.3787H65.4942V29.0696H74.2875V20.3787Z" fill="white"/>
<path d="M74.2875 42.5555H65.4942V51.2464H74.2875V42.5555Z" fill="white"/>
<path d="M93.2383 4.04578H105.822L92.1771 67.4294H79.5937L93.2383 4.04578Z" fill="white"/>
<path d="M115.676 4.04578H128.26L114.615 67.4294H102.032L115.676 4.04578Z" fill="#FF0000"/>
</g>
<defs>
<clipPath id="clip0_8_19">
<rect width="250" height="84.6614" fill="white"/>
</clipPath>
</defs>
</svg>
